<?xml version="1.0" encoding="UTF-8"?>
<svg xmlns="http://www.w3.org/2000/svg" viewBox="0 0 1920 1080" width="1920" height="1080">
  <defs>
    <linearGradient id="bg2" x1="0%" y1="0%" x2="0%" y2="100%">
      <stop offset="0%" stop-color="#c7ddf5"/>
      <stop offset="100%" stop-color="#b8d4f0"/>
    </linearGradient>
  </defs>
  <rect width="1920" height="1080" fill="url(#bg2)"/>

  <text x="960" y="28" text-anchor="middle" font-family="system-ui, sans-serif"
        font-size="18" font-weight="700" fill="#4b5563" letter-spacing="1">
    FARO - ACCORDION EMPTY / DISCONNECTED
  </text>
  <text x="40" y="52" fill="#8b5cf6" font-family="system-ui, sans-serif"
        font-size="18" font-weight="bold">DESKTOP (16:9)</text>
  <text x="1500" y="52" fill="#d946ef" font-family="system-ui, sans-serif"
        font-size="15" font-weight="bold">MOBILE</text>

  <g id="desktop" transform="translate(40, 60)">
    <rect width="1280" height="720" rx="8" fill="#e8d4b8" stroke="#b8a080"/>
    <rect x="0" y="0" width="1280" height="48" fill="#dcc8a8"/>
    <text x="16" y="30" font-family="system-ui, sans-serif" font-size="16" font-weight="bold" fill="#1f2937">Faro</text>
    <text x="72" y="30" font-family="system-ui, sans-serif" font-size="14" fill="#1f2937">Ambiente</text>
    <text x="160" y="30" font-family="system-ui, sans-serif" font-size="14" fill="#1f2937">Ver</text>
    <circle cx="320" cy="24" r="6" fill="#94a3b8"/>
    <text x="334" y="30" font-family="system-ui, sans-serif" font-size="14" fill="#4b5563">Desconectado</text>
    <g class="callout" transform="translate(480, 24)">
      <circle r="14" fill="#dc2626"/>
      <text y="5" fill="#fff" font-size="14" font-weight="bold" text-anchor="middle">1</text>
    </g>

    <rect x="0" y="48" width="260" height="612" fill="#f5f0e6" stroke="#b8a080"/>
    <rect x="8" y="64" width="244" height="32" rx="4" fill="#dcc8a8"/>
    <text x="18" y="86" font-family="system-ui, sans-serif" font-size="14" font-weight="bold" fill="#1f2937">&gt; Pods</text>
    <g class="callout" transform="translate(230, 80)">
      <circle r="14" fill="#dc2626"/>
      <text y="5" fill="#fff" font-size="14" font-weight="bold" text-anchor="middle">2</text>
    </g>
    <rect x="8" y="104" width="244" height="32" rx="4" fill="#dcc8a8"/>
    <text x="18" y="126" font-family="system-ui, sans-serif" font-size="14" font-weight="bold" fill="#1f2937">&gt; ConfigMaps</text>
    <text x="18" y="170" font-family="system-ui, sans-serif" font-size="14" fill="#4b5563">Conecta un ambiente</text>
    <text x="18" y="192" font-family="system-ui, sans-serif" font-size="14" fill="#4b5563">para ver el catalogo.</text>
    <g class="callout" transform="translate(230, 180)">
      <circle r="14" fill="#dc2626"/>
      <text y="5" fill="#fff" font-size="14" font-weight="bold" text-anchor="middle">3</text>
    </g>

    <rect x="260" y="48" width="1020" height="612" fill="#e8d4b8"/>
    <text x="770" y="320" text-anchor="middle" font-family="system-ui, sans-serif" font-size="18" font-weight="bold" fill="#1f2937">Ambiente activo</text>
    <text x="770" y="350" text-anchor="middle" font-family="system-ui, sans-serif" font-size="14" fill="#4b5563">Usa Ambiente - Conectar. Sin pestanas hasta el primer clic.</text>
    <rect x="690" y="380" width="160" height="44" rx="6" fill="#8b5cf6"/>
    <text x="770" y="408" text-anchor="middle" font-family="system-ui, sans-serif" font-size="14" font-weight="bold" fill="#fff">Conectar</text>
    <g class="callout" transform="translate(870, 402)">
      <circle r="14" fill="#dc2626"/>
      <text y="5" fill="#fff" font-size="14" font-weight="bold" text-anchor="middle">4</text>
    </g>

    <rect x="0" y="660" width="1280" height="60" fill="#dcc8a8"/>
    <text x="16" y="696" font-family="system-ui, sans-serif" font-size="14" fill="#4b5563">US4: secciones colapsadas + empty state explicito</text>
  </g>

  <g id="mobile" transform="translate(1360, 60)">
    <rect width="360" height="720" rx="24" fill="#e8d4b8" stroke="#b8a080"/>
    <rect x="0" y="0" width="360" height="78" rx="24" fill="#dcc8a8"/>
    <rect x="0" y="54" width="360" height="24" fill="#dcc8a8"/>
    <text x="20" y="52" font-family="system-ui, sans-serif" font-size="16" font-weight="bold" fill="#1f2937">Faro</text>
    <text x="20" y="72" font-family="system-ui, sans-serif" font-size="14" fill="#4b5563">Desconectado</text>

    <rect x="12" y="100" width="336" height="48" rx="8" fill="#dcc8a8"/>
    <text x="24" y="130" font-family="system-ui, sans-serif" font-size="14" font-weight="bold" fill="#1f2937">&gt; Pods</text>
    <rect x="12" y="160" width="336" height="48" rx="8" fill="#dcc8a8"/>
    <text x="24" y="190" font-family="system-ui, sans-serif" font-size="14" font-weight="bold" fill="#1f2937">&gt; ConfigMaps</text>
    <text x="24" y="240" font-family="system-ui, sans-serif" font-size="14" fill="#4b5563">Conecta para ver items.</text>
    <g class="callout" transform="translate(320, 230)">
      <circle r="14" fill="#dc2626"/>
      <text y="5" fill="#fff" font-size="14" font-weight="bold" text-anchor="middle">3</text>
    </g>

    <rect x="60" y="320" width="240" height="48" rx="8" fill="#8b5cf6"/>
    <text x="180" y="350" text-anchor="middle" font-family="system-ui, sans-serif" font-size="14" font-weight="bold" fill="#fff">Conectar</text>

    <rect x="0" y="664" width="360" height="56" rx="24" fill="#dcc8a8"/>
  </g>

  <g id="annotations" transform="translate(40, 800)">
    <rect width="1840" height="220" rx="8" fill="#dcc8a8" stroke="#b8a080"/>

    <text x="20" y="32" font-family="system-ui, sans-serif" font-size="14" font-weight="bold" fill="#1f2937">1) Estado desconectado</text>
    <text x="20" y="54" font-family="system-ui, sans-serif" font-size="14" fill="#374151">Indicador en chrome; sin inventar catalogo falso.</text>
    <rect x="20" y="62" width="56" height="22" rx="4" fill="#0891b2"/>
    <text x="48" y="78" text-anchor="middle" font-size="12" fill="#fff" font-family="system-ui, sans-serif">US4</text>
    <rect x="82" y="62" width="62" height="22" rx="4" fill="#2563eb"/>
    <text x="113" y="78" text-anchor="middle" font-size="12" fill="#fff" font-family="system-ui, sans-serif">FR-011</text>

    <text x="480" y="32" font-family="system-ui, sans-serif" font-size="14" font-weight="bold" fill="#1f2937">2) Secciones colapsadas</text>
    <text x="480" y="54" font-family="system-ui, sans-serif" font-size="14" fill="#374151">Pods y ConfigMaps independientes (&gt; / v).</text>
    <rect x="480" y="62" width="56" height="22" rx="4" fill="#0891b2"/>
    <text x="508" y="78" text-anchor="middle" font-size="12" fill="#fff" font-family="system-ui, sans-serif">US4</text>
    <rect x="542" y="62" width="62" height="22" rx="4" fill="#2563eb"/>
    <text x="573" y="78" text-anchor="middle" font-size="12" fill="#fff" font-family="system-ui, sans-serif">FR-008</text>
    <rect x="610" y="62" width="62" height="22" rx="4" fill="#ea580c"/>
    <text x="641" y="78" text-anchor="middle" font-size="12" fill="#fff" font-family="system-ui, sans-serif">SC-005</text>

    <text x="980" y="32" font-family="system-ui, sans-serif" font-size="14" font-weight="bold" fill="#1f2937">3) Empty hint</text>
    <text x="980" y="54" font-family="system-ui, sans-serif" font-size="14" fill="#374151">Mensaje explicito &quot;conecta primero&quot;, no panel roto.</text>
    <rect x="980" y="62" width="56" height="22" rx="4" fill="#0891b2"/>
    <text x="1008" y="78" text-anchor="middle" font-size="12" fill="#fff" font-family="system-ui, sans-serif">US4</text>
    <rect x="1042" y="62" width="62" height="22" rx="4" fill="#2563eb"/>
    <text x="1073" y="78" text-anchor="middle" font-size="12" fill="#fff" font-family="system-ui, sans-serif">FR-011</text>

    <text x="20" y="130" font-family="system-ui, sans-serif" font-size="14" font-weight="bold" fill="#1f2937">4) CTA Conectar</text>
    <text x="20" y="152" font-family="system-ui, sans-serif" font-size="14" fill="#374151">Flujo Ambiente se mantiene; layout solo cambia navegacion post-connect.</text>
    <rect x="20" y="160" width="56" height="22" rx="4" fill="#0891b2"/>
    <text x="48" y="176" text-anchor="middle" font-size="12" fill="#fff" font-family="system-ui, sans-serif">US1</text>
    <rect x="82" y="160" width="62" height="22" rx="4" fill="#2563eb"/>
    <text x="113" y="176" text-anchor="middle" font-size="12" fill="#fff" font-family="system-ui, sans-serif">FR-009</text>
  </g>

  <text x="40" y="1060" fill="#374151" font-family="system-ui, sans-serif" font-size="18" font-weight="bold">
    002:02 | Accordion Nav Layout | SpecKit
  </text>
</svg>
